<?xml version="1.0" encoding="utf-8"?>
<!-- Generator: Adobe Illustrator 16.0.4, SVG Export Plug-In . SVG Version: 6.00 Build 0)  -->
<!DOCTYPE svg PUBLIC "-//W3C//DTD SVG 1.1//EN" "http://www.w3.org/Graphics/SVG/1.1/DTD/svg11.dtd">
<svg version="1.1" id="Layer_1" xmlns="http://www.w3.org/2000/svg" xmlns:xlink="http://www.w3.org/1999/xlink" x="0px" y="0px"
	 width="20px" height="15.999px" viewBox="0 0 20 15.999" enable-background="new 0 0 20 15.999" xml:space="preserve">
<path fill="#000000" d="M0,3c0-1.656,1.344-3,3-3s3,1.344,3,3S4.656,6,3,6S0,4.656,0,3z M1.566,12.605C3.828,10.279,6.823,9,10,9
	s6.172,1.279,8.434,3.605c0.77,0.791,0.753,2.057-0.039,2.828c-0.791,0.769-2.058,0.753-2.828-0.039C14.064,13.849,12.088,13,10,13
	s-4.064,0.85-5.566,2.395c-0.77,0.791-2.036,0.809-2.828,0.039C0.813,14.662,0.797,13.396,1.566,12.605z M17,6c-1.656,0-3-1.344-3-3
	s1.344-3,3-3s3,1.344,3,3S18.656,6,17,6z"/>
</svg>
